<?xml version="1.0" encoding="utf-8"?>
<!-- Generator: Adobe Illustrator 18.1.1, SVG Export Plug-In . SVG Version: 6.00 Build 0)  -->
<svg version="1.1" id="Layer_1" focusable="false" xmlns="http://www.w3.org/2000/svg" xmlns:xlink="http://www.w3.org/1999/xlink"
	 x="0px" y="0px" viewBox="854.7 54.7 240.6 240.6" enable-background="new 854.7 54.7 240.6 240.6" xml:space="preserve">
<path fill="#626262" d="M1020.6,175l68.4-68.4c8.4-8.4,8.4-22,0-30.4L1073.8,61c-8.4-8.4-22-8.4-30.4,0L975,129.4L906.6,61
	c-8.4-8.4-22-8.4-30.4,0L861,76.2c-8.4,8.4-8.4,22,0,30.4l68.4,68.4L861,243.4c-8.4,8.4-8.4,22,0,30.4l15.2,15.2
	c8.4,8.4,22,8.4,30.4,0l68.4-68.4l68.4,68.4c8.4,8.4,22,8.4,30.4,0l15.2-15.2c8.4-8.4,8.4-22,0-30.4L1020.6,175z"/>
</svg>
